<svg width="59" height="59" viewBox="0 0 59 59" fill="none" xmlns="http://www.w3.org/2000/svg">
<path d="M17.2083 41.8236L28.057 41.7868L51.7356 18.3343C52.6649 17.405 53.1762 16.1709 53.1762 14.8582C53.1762 13.5454 52.6649 12.3113 51.7356 11.3821L47.8367 7.48318C45.9782 5.62468 42.7357 5.63451 40.8919 7.47581L17.2083 30.9332V41.8236ZM44.3606 10.9593L48.2669 14.8508L44.341 18.7399L40.442 14.8434L44.3606 10.9593ZM22.125 32.9835L36.9487 18.2998L40.8477 22.1988L26.0264 36.8775L22.125 36.8898V32.9835Z" fill="#EDB848"/>
<path d="M12.2917 51.625H46.7083C49.4199 51.625 51.625 49.4199 51.625 46.7083V25.3995L46.7083 30.3162V46.7083H20.0551C19.9912 46.7083 19.9248 46.7329 19.8609 46.7329C19.7798 46.7329 19.6986 46.7108 19.615 46.7083H12.2917V12.2917H29.1239L34.0405 7.375H12.2917C9.58012 7.375 7.375 9.58012 7.375 12.2917V46.7083C7.375 49.4199 9.58012 51.625 12.2917 51.625Z" fill="#EDB848"/>
</svg>
