<svg width="34" height="34" viewBox="0 0 34 34" fill="none" xmlns="http://www.w3.org/2000/svg">
<path d="M30.8755 9.73347C31.0876 9.02185 30.8755 8.5 29.8726 8.5H26.5503C25.705 8.5 25.3186 8.95146 25.1066 9.44729C25.1066 9.44729 23.4174 13.6083 21.0238 16.3063C20.2512 17.0914 19.8982 17.3393 19.477 17.3393C19.2664 17.3393 18.9604 17.0914 18.9604 16.3798V9.73347C18.9604 8.87953 18.7165 8.5 18.0121 8.5H12.7916C12.2644 8.5 11.9462 8.89483 11.9462 9.2713C11.9462 10.0793 13.143 10.266 13.2657 12.5432V17.4832C13.2657 18.5651 13.0733 18.7626 12.6492 18.7626C11.5236 18.7626 8.78454 14.5862 7.159 9.80539C6.84238 8.87647 6.52272 8.50153 5.67435 8.50153H2.35359C1.40372 8.50153 1.21436 8.95299 1.21436 9.44882C1.21436 10.3395 2.33996 14.7469 6.45758 20.576C9.20266 24.5565 13.0673 26.7143 16.588 26.7143C18.6983 26.7143 18.9589 26.2353 18.9589 25.4089V22.4002C18.9589 21.4422 19.1604 21.2494 19.8285 21.2494C20.3193 21.2494 21.1647 21.5004 23.1356 23.4179C25.3868 25.692 25.7595 26.7128 27.0245 26.7128H30.3452C31.2936 26.7128 31.7678 26.2338 31.4951 25.288C31.1966 24.3468 30.121 22.9772 28.6939 21.3565C27.9183 20.4322 26.7594 19.4374 26.4064 18.9401C25.914 18.2989 26.0564 18.0157 26.4064 17.4465C26.4079 17.448 30.4543 11.6908 30.8755 9.73347Z" fill="black"/>
</svg>
