<svg width="42" height="37" viewBox="0 0 42 37" fill="none" xmlns="http://www.w3.org/2000/svg">
<g clip-path="url(#clip0_62_281)">
<path d="M18.4698 2.53664C18.9146 1.6839 18.5792 0.636052 17.726 0.195231C16.8729 -0.245589 15.8083 0.0868329 15.3635 0.932341L8.575 13.8751H2.33333C1.04271 13.8751 0 14.9085 0 16.1876C0 17.4667 1.04271 18.5001 2.33333 18.5001L6.11771 33.4952C6.63542 35.5548 8.50208 37.0001 10.6458 37.0001H31.3542C33.4979 37.0001 35.3646 35.5548 35.8823 33.4952L39.6667 18.5001C40.9573 18.5001 42 17.4667 42 16.1876C42 14.9085 40.9573 13.8751 39.6667 13.8751H33.425L26.6365 0.932341C26.1917 0.0868329 25.1344 -0.245589 24.274 0.195231C23.4135 0.636052 23.0854 1.6839 23.5302 2.53664L29.4802 13.8751H12.5198L18.4698 2.53664ZM14 21.9689V28.9064C14 29.5423 13.475 30.0626 12.8333 30.0626C12.1917 30.0626 11.6667 29.5423 11.6667 28.9064V21.9689C11.6667 21.3329 12.1917 20.8126 12.8333 20.8126C13.475 20.8126 14 21.3329 14 21.9689ZM21 20.8126C21.6417 20.8126 22.1667 21.3329 22.1667 21.9689V28.9064C22.1667 29.5423 21.6417 30.0626 21 30.0626C20.3583 30.0626 19.8333 29.5423 19.8333 28.9064V21.9689C19.8333 21.3329 20.3583 20.8126 21 20.8126ZM30.3333 21.9689V28.9064C30.3333 29.5423 29.8083 30.0626 29.1667 30.0626C28.525 30.0626 28 29.5423 28 28.9064V21.9689C28 21.3329 28.525 20.8126 29.1667 20.8126C29.8083 20.8126 30.3333 21.3329 30.3333 21.9689Z" fill="#EDB848"/>
</g>
<defs>
<clipPath id="clip0_62_281">
<rect width="42" height="37" fill="white"/>
</clipPath>
</defs>
</svg>
