<svg width="28" height="38" viewBox="0 0 28 38" fill="none" xmlns="http://www.w3.org/2000/svg">
<path d="M28 37.375H0V33.875C0 31.5544 0.921872 29.3288 2.56282 27.6878C4.20376 26.0469 6.42936 25.125 8.75 25.125H19.25C21.5706 25.125 23.7962 26.0469 25.4372 27.6878C27.0781 29.3288 28 31.5544 28 33.875V37.375ZM14 21.625C12.6211 21.625 11.2557 21.3534 9.98182 20.8257C8.70791 20.2981 7.55039 19.5246 6.57538 18.5496C5.60036 17.5746 4.82694 16.4171 4.29926 15.1432C3.77159 13.8693 3.5 12.5039 3.5 11.125C3.5 9.74612 3.77159 8.38074 4.29926 7.10682C4.82694 5.83291 5.60036 4.67539 6.57538 3.70038C7.55039 2.72536 8.70791 1.95194 9.98182 1.42426C11.2557 0.89659 12.6211 0.625 14 0.625C16.7848 0.625 19.4555 1.73125 21.4246 3.70038C23.3938 5.66951 24.5 8.34023 24.5 11.125C24.5 13.9098 23.3938 16.5805 21.4246 18.5496C19.4555 20.5188 16.7848 21.625 14 21.625Z" fill="#EDB848"/>
</svg>
