<svg width="18" height="45" viewBox="0 0 18 45" fill="none" xmlns="http://www.w3.org/2000/svg">
<path d="M0.425109 23.9019L15.6999 44.4652C15.9548 44.8085 16.2934 45 16.6455 45C16.9977 45 17.3363 44.8085 17.5911 44.4652L17.6076 44.442C17.7316 44.2756 17.8303 44.0752 17.8977 43.8532C17.9652 43.6312 18 43.3921 18 43.1505C18 42.9089 17.9652 42.6698 17.8977 42.4477C17.8303 42.2257 17.7316 42.0254 17.6076 41.859L3.22353 22.4961L17.6076 3.14103C17.7316 2.97461 17.8303 2.77429 17.8977 2.55227C17.9652 2.33024 18 2.09115 18 1.84952C18 1.6079 17.9652 1.36881 17.8977 1.14678C17.8303 0.924756 17.7316 0.724441 17.6076 0.558024L17.5911 0.534785C17.3363 0.191503 16.9977 -3.57628e-07 16.6455 -3.57628e-07C16.2934 -3.57628e-07 15.9548 0.191503 15.6999 0.534785L0.425109 21.0981C0.290773 21.279 0.183827 21.4965 0.110753 21.7374C0.0376797 21.9784 0 22.2378 0 22.5C0 22.7622 0.0376797 23.0216 0.110753 23.2626C0.183827 23.5035 0.290773 23.721 0.425109 23.9019Z" fill="#EDB848"/>
</svg>
